mastitorrents.com 
http://www.mastitorrents.com/forums/index.php

Format                           : Matroska
File size                        : 7.93 GiB
Duration                         : 1h 50mn
Overall bit rate                 : 10.3 Mbps
Encoded date                     : UTC 2010-12-13 07:01:58
Writing application              : mkvmerge v4.0.0 ('The Stars were mine') built on Jun  6 2010 16:18:42
Writing library                  : libebml v1.0.0 + libmatroska v1.0.0


Encoded By RajMahal @ Team ICF

Thanks To [DDR] For the Source 

Chapters                           : Muxed
Subtitles                           : English , Arabic

Video

ID                               : 1
Format                           : AVC
Format/Info                      : Advanced Video Codec
Format profile                   : High@L4.1
Format settings, CABAC           : Yes
Format settings, ReFrames        : 3 frames
Codec ID                         : V_MPEG4/ISO/AVC
Duration                         : 1h 50mn
Bit rate mode                    : Variable
Bit rate                         : 8 839 Kbps
Maximum bit rate                 : 13.0 Mbps
Width                            : 1 920 pixels
Height                           : 1 040 pixels
Display aspect ratio             : 16:9
Frame rate                       : 24.000 fps
Color space                      : YUV
Chroma subsampling               : 4:2:0
Bit depth                        : 8 bits
Scan type                        : Progressive
Bits/(Pixel*Frame)               : 0.184
Stream size                      : 6.62 GiB (83%)
Writing library                  : x264 core 98 r1649 20cbe10

Audio

ID                               : 2
Format                           : DTS
Format/Info                      : Digital Theater Systems
Codec ID                         : A_DTS
Duration                         : 1h 50mn
Bit rate mode                    : Constant
Bit rate                         : 1 510 Kbps
Channel(s)                       : 6 channels
Channel positions                : Front: L C R, Side: L R, LFE
Sampling rate                    : 48.0 KHz
Bit depth                        : 24 bits
Compression mode                 : Lossy
Stream size                      : 1.16 GiB (15%)
Language                         : Hindi
